<svg xmlns="http://www.w3.org/2000/svg" xmlns:xlink="http://www.w3.org/1999/xlink" width="50" zoomAndPan="magnify" viewBox="0 0 37.5 37.499999" height="50" preserveAspectRatio="xMidYMid meet" version="1.2"><g id="2f8b0ea366"><path style=" stroke:none;fill-rule:evenodd;fill:#ffffff;fill-opacity:1;" d="M 21.171875 18.507812 L 29.167969 10.515625 C 29.902344 9.777344 29.90625 8.582031 29.167969 7.847656 C 28.433594 7.113281 27.238281 7.113281 26.503906 7.847656 L 18.507812 15.84375 L 10.515625 7.847656 C 9.777344 7.113281 8.582031 7.113281 7.847656 7.847656 C 7.113281 8.582031 7.113281 9.777344 7.847656 10.515625 L 15.84375 18.507812 L 7.847656 26.5 C 7.113281 27.238281 7.113281 28.433594 7.847656 29.167969 C 8.582031 29.902344 9.777344 29.902344 10.515625 29.167969 L 18.507812 21.171875 L 26.503906 29.167969 C 27.238281 29.902344 28.433594 29.902344 29.167969 29.167969 C 29.902344 28.433594 29.902344 27.238281 29.167969 26.5 Z M 21.171875 18.507812 "/></g></svg>