<svg width="219" height="54" viewBox="0 0 219 54" fill="none" xmlns="http://www.w3.org/2000/svg">
<g clip-path="url(#clip0_112_265)">
<path d="M6.55 46.68H1.94V49.2H7.19V50.96H0V41.15H6.96V42.89H1.94V44.97H6.55V46.67V46.68Z" fill="#054A91"/>
<path d="M8.73 41.15H10.71V49.2H15.41V50.96H8.73V41.15Z" fill="#054A91"/>
<path d="M23.39 46.68H18.78V49.2H24.03V50.96H16.84V41.15H23.8V42.89H18.78V44.97H23.39V46.67V46.68Z" fill="#054A91"/>
<path d="M32.27 50.23C31.56 50.9 30.66 51.24 29.55 51.24C28.19 51.24 27.11 50.79 26.33 49.88C25.55 48.97 25.16 47.72 25.16 46.14C25.16 44.43 25.6 43.11 26.49 42.18C27.26 41.37 28.25 40.97 29.44 40.97C31.04 40.97 32.2 41.51 32.94 42.59C33.35 43.2 33.57 43.81 33.6 44.42H31.62C31.49 43.95 31.33 43.59 31.12 43.36C30.76 42.93 30.23 42.72 29.52 42.72C28.81 42.72 28.23 43.02 27.81 43.62C27.39 44.22 27.19 45.07 27.19 46.17C27.19 47.27 27.41 48.09 27.85 48.64C28.29 49.19 28.85 49.46 29.53 49.46C30.21 49.46 30.76 49.22 31.12 48.75C31.32 48.5 31.49 48.12 31.62 47.61H33.58C33.41 48.68 32.97 49.55 32.27 50.22V50.23Z" fill="#054A91"/>
<path d="M41.99 41.15V42.89H39.15V50.96H37.15V42.89H34.3V41.15H41.99Z" fill="#054A91"/>
<path d="M47.18 47.12H45.13V50.97H43.19V41.16H47.84C48.51 41.17 49.02 41.26 49.38 41.41C49.74 41.56 50.04 41.79 50.29 42.1C50.5 42.35 50.66 42.62 50.78 42.93C50.9 43.24 50.96 43.58 50.96 43.96C50.96 44.43 50.85 44.88 50.62 45.33C50.39 45.78 50.02 46.1 49.49 46.29C49.93 46.47 50.24 46.73 50.42 47.07C50.6 47.41 50.69 47.92 50.69 48.6V49.26C50.69 49.71 50.71 50.01 50.74 50.17C50.79 50.42 50.91 50.61 51.1 50.73V50.98H48.92C48.86 50.76 48.82 50.59 48.79 50.45C48.74 50.17 48.71 49.89 48.71 49.6V48.69C48.69 48.06 48.58 47.65 48.37 47.44C48.16 47.23 47.76 47.13 47.18 47.13V47.12ZM48.38 45.33C48.77 45.14 48.97 44.78 48.97 44.23C48.97 43.64 48.78 43.24 48.4 43.03C48.19 42.91 47.86 42.86 47.43 42.86H45.13V45.5H47.38C47.83 45.5 48.16 45.45 48.38 45.34V45.33Z" fill="#054A91"/>
<path d="M52.52 41.15H54.49V50.96H52.52V41.15Z" fill="#054A91"/>
<path d="M63.03 50.23C62.32 50.9 61.42 51.24 60.31 51.24C58.95 51.24 57.87 50.79 57.09 49.88C56.31 48.97 55.92 47.72 55.92 46.14C55.92 44.43 56.36 43.11 57.25 42.18C58.02 41.37 59.01 40.97 60.2 40.97C61.8 40.97 62.96 41.51 63.7 42.59C64.11 43.2 64.33 43.81 64.36 44.42H62.38C62.25 43.95 62.09 43.59 61.88 43.36C61.52 42.93 60.99 42.72 60.28 42.72C59.57 42.72 58.99 43.02 58.57 43.62C58.15 44.22 57.95 45.07 57.95 46.17C57.95 47.27 58.17 48.09 58.61 48.64C59.05 49.19 59.61 49.46 60.29 49.46C60.97 49.46 61.52 49.22 61.88 48.75C62.08 48.5 62.25 48.12 62.38 47.61H64.34C64.17 48.68 63.73 49.55 63.03 50.22V50.23Z" fill="#054A91"/>
<path d="M71.33 50.96H69.48V41.15H72.36L74.09 48.86L75.8 41.15H78.65V50.96H76.8V44.32C76.8 44.13 76.8 43.86 76.8 43.52C76.8 43.18 76.8 42.91 76.8 42.72L75 50.95H73.08L71.3 42.72C71.3 42.91 71.3 43.17 71.3 43.52C71.3 43.87 71.3 44.13 71.3 44.32V50.96H71.33Z" fill="#054A91"/>
<path d="M84.69 51.24C83.33 51.24 82.3 50.86 81.58 50.1C80.62 49.16 80.14 47.81 80.14 46.05C80.14 44.29 80.62 42.9 81.58 42C82.3 41.24 83.33 40.86 84.69 40.86C86.05 40.86 87.08 41.24 87.8 42C88.76 42.9 89.24 44.25 89.24 46.05C89.24 47.85 88.76 49.16 87.8 50.1C87.08 50.86 86.05 51.24 84.69 51.24ZM86.57 48.6C87.03 48 87.26 47.15 87.26 46.04C87.26 44.93 87.03 44.09 86.57 43.49C86.11 42.89 85.49 42.59 84.7 42.59C83.91 42.59 83.29 42.89 82.82 43.49C82.35 44.09 82.12 44.94 82.12 46.05C82.12 47.16 82.35 48.01 82.82 48.61C83.29 49.21 83.91 49.51 84.7 49.51C85.49 49.51 86.11 49.21 86.57 48.61V48.6Z" fill="#054A91"/>
<path d="M97.64 41.15V42.89H94.8V50.96H92.8V42.89H89.95V41.15H97.64Z" fill="#054A91"/>
<path d="M102.77 51.24C101.41 51.24 100.38 50.86 99.66 50.1C98.7 49.16 98.22 47.81 98.22 46.05C98.22 44.29 98.7 42.9 99.66 42C100.38 41.24 101.41 40.86 102.77 40.86C104.13 40.86 105.16 41.24 105.88 42C106.84 42.9 107.32 44.25 107.32 46.05C107.32 47.85 106.84 49.16 105.88 50.1C105.16 50.86 104.13 51.24 102.77 51.24ZM104.64 48.6C105.1 48 105.33 47.15 105.33 46.04C105.33 44.93 105.1 44.09 104.64 43.49C104.18 42.89 103.56 42.59 102.77 42.59C101.98 42.59 101.36 42.89 100.89 43.49C100.42 44.09 100.19 44.94 100.19 46.05C100.19 47.16 100.42 48.01 100.89 48.61C101.36 49.21 101.98 49.51 102.77 49.51C103.56 49.51 104.18 49.21 104.64 48.61V48.6Z" fill="#054A91"/>
<path d="M112.85 47.12H110.8V50.97H108.86V41.16H113.51C114.18 41.17 114.69 41.26 115.05 41.41C115.41 41.56 115.71 41.79 115.96 42.1C116.17 42.35 116.33 42.62 116.45 42.93C116.57 43.24 116.63 43.58 116.63 43.96C116.63 44.43 116.52 44.88 116.29 45.33C116.06 45.78 115.69 46.1 115.16 46.29C115.6 46.47 115.91 46.73 116.09 47.07C116.27 47.41 116.36 47.92 116.36 48.6V49.26C116.36 49.71 116.38 50.01 116.41 50.17C116.46 50.42 116.58 50.61 116.77 50.73V50.98H114.59C114.53 50.76 114.49 50.59 114.46 50.45C114.41 50.17 114.38 49.89 114.38 49.6V48.69C114.36 48.06 114.25 47.65 114.04 47.44C113.83 47.23 113.43 47.13 112.85 47.13V47.12ZM114.06 45.33C114.45 45.14 114.65 44.78 114.65 44.23C114.65 43.64 114.46 43.24 114.08 43.03C113.87 42.91 113.54 42.86 113.11 42.86H110.81V45.5H113.06C113.51 45.5 113.84 45.45 114.06 45.34V45.33Z" fill="#054A91"/>
<path d="M128.7 50.23C127.99 50.9 127.09 51.24 125.98 51.24C124.62 51.24 123.54 50.79 122.76 49.88C121.98 48.97 121.59 47.72 121.59 46.14C121.59 44.43 122.03 43.11 122.92 42.18C123.69 41.37 124.68 40.97 125.87 40.97C127.47 40.97 128.63 41.51 129.37 42.59C129.78 43.2 130 43.81 130.03 44.42H128.05C127.92 43.95 127.76 43.59 127.55 43.36C127.19 42.93 126.66 42.72 125.95 42.72C125.24 42.72 124.66 43.02 124.24 43.62C123.82 44.22 123.62 45.07 123.62 46.17C123.62 47.27 123.84 48.09 124.28 48.64C124.72 49.19 125.28 49.46 125.96 49.46C126.64 49.46 127.19 49.22 127.55 48.75C127.75 48.5 127.92 48.12 128.05 47.61H130.01C129.84 48.68 129.4 49.55 128.7 50.22V50.23Z" fill="#054A91"/>
<path d="M135.72 51.24C134.36 51.24 133.33 50.86 132.61 50.1C131.65 49.16 131.17 47.81 131.17 46.05C131.17 44.29 131.65 42.9 132.61 42C133.33 41.24 134.36 40.86 135.72 40.86C137.08 40.86 138.11 41.24 138.83 42C139.79 42.9 140.27 44.25 140.27 46.05C140.27 47.85 139.79 49.16 138.83 50.1C138.11 50.86 137.08 51.24 135.72 51.24ZM137.59 48.6C138.05 48 138.28 47.15 138.28 46.04C138.28 44.93 138.05 44.09 137.59 43.49C137.13 42.89 136.51 42.59 135.72 42.59C134.93 42.59 134.31 42.89 133.84 43.49C133.37 44.09 133.14 44.94 133.14 46.05C133.14 47.16 133.37 48.01 133.84 48.61C134.31 49.21 134.93 49.51 135.72 49.51C136.51 49.51 137.13 49.21 137.59 48.61V48.6Z" fill="#054A91"/>
<path d="M143.59 50.96H141.74V41.15H144.62L146.35 48.86L148.06 41.15H150.91V50.96H149.06V44.32C149.06 44.13 149.06 43.86 149.06 43.52C149.06 43.18 149.06 42.91 149.06 42.72L147.26 50.95H145.34L143.56 42.72C143.56 42.91 143.56 43.17 143.56 43.52C143.56 43.87 143.56 44.13 143.56 44.32V50.96H143.59Z" fill="#054A91"/>
<path d="M156.79 47.44H154.78V50.97H152.81V41.16H156.94C157.89 41.16 158.65 41.41 159.22 41.92C159.79 42.43 160.07 43.21 160.07 44.27C160.07 45.43 159.79 46.25 159.22 46.73C158.65 47.21 157.84 47.45 156.79 47.45V47.44ZM157.72 45.39C157.98 45.15 158.11 44.78 158.11 44.27C158.11 43.76 157.98 43.4 157.72 43.18C157.46 42.96 157.1 42.85 156.63 42.85H154.78V45.74H156.63C157.1 45.74 157.46 45.62 157.72 45.39Z" fill="#054A91"/>
<path d="M166.13 48.95H162.63L161.97 50.97H159.9L163.29 41.16H165.53L168.89 50.97H166.74L166.13 48.95ZM165.58 47.26L164.4 43.4L163.18 47.26H165.59H165.58Z" fill="#054A91"/>
<path d="M177.77 50.96H175.79L171.92 43.99V50.96H170.07V41.15H172.15L175.93 48V41.15H177.78V50.96H177.77Z" fill="#054A91"/>
<path d="M187.28 41.15L184.11 47.27V50.96H182.13V47.27L178.85 41.15H181.19L183.16 45.42L185.05 41.15H187.3H187.28Z" fill="#054A91"/>
<path d="M188.57 51.64C188.49 51.97 188.35 52.25 188.14 52.49C187.91 52.75 187.65 52.94 187.34 53.07C187.03 53.2 186.82 53.27 186.71 53.27V52.54C187.08 52.43 187.35 52.26 187.52 52.01C187.69 51.76 187.79 51.41 187.82 50.97H186.71V48.99H188.69V50.71C188.69 51.01 188.65 51.33 188.57 51.66V51.64Z" fill="#054A91"/>
<path d="M194.12 41.15H196.09V50.96H194.12V41.15Z" fill="#054A91"/>
<path d="M205.61 50.96H203.63L199.76 43.99V50.96H197.91V41.15H199.99L203.77 48V41.15H205.62V50.96H205.61Z" fill="#054A91"/>
<path d="M214.15 50.23C213.44 50.9 212.54 51.24 211.43 51.24C210.07 51.24 208.99 50.79 208.21 49.88C207.43 48.97 207.04 47.72 207.04 46.14C207.04 44.43 207.48 43.11 208.37 42.18C209.14 41.37 210.13 40.97 211.32 40.97C212.92 40.97 214.08 41.51 214.82 42.59C215.23 43.2 215.45 43.81 215.48 44.42H213.5C213.37 43.95 213.21 43.59 213 43.36C212.64 42.93 212.11 42.72 211.4 42.72C210.69 42.72 210.11 43.02 209.69 43.62C209.27 44.22 209.07 45.07 209.07 46.17C209.07 47.27 209.29 48.09 209.73 48.64C210.17 49.19 210.73 49.46 211.41 49.46C212.09 49.46 212.64 49.22 213 48.75C213.2 48.5 213.37 48.12 213.5 47.61H215.46C215.29 48.68 214.85 49.55 214.15 50.22V50.23Z" fill="#054A91"/>
<path d="M216.8 48.98H218.75V50.96H216.8V48.98Z" fill="#054A91"/>
<path d="M18.51 28.47C19.17 26.31 23.38 12.02 23.46 11.63C23.54 11.24 23.05 10.61 22.99 10.14C22.93 9.67 22.58 8.98 23.21 8.95C23.84 8.92 31.26 8.95 32.58 8.95C34.52 8.94 36.17 10.44 35.76 12.38C35.35 14.32 31.17 26.48 30.84 27.81C30.51 29.14 30.26 30.66 31.53 31.16C32.8 31.66 34.21 30.99 34.79 29.47C35.37 27.95 40.65 11.36 40.85 10.64C41.05 9.92 41.46 9.23 42.67 9.23H51.88C52.82 9.23 53.51 9.59 53.18 10.14C52.85 10.69 47.76 26.45 47.32 27.67C46.88 28.89 46.49 30.76 48.09 31.32C49.69 31.88 50.99 30.33 51.44 28.92C51.89 27.51 56.72 12.16 56.97 11.14C57.22 10.12 57.33 9.43 58.27 9.23C59.21 9.03 68.03 9.23 69 9.23C69.97 9.23 70.47 9.37 70.13 10.17C69.79 10.97 61.72 32.93 61.2 34.31C60.68 35.69 59.38 37.71 57.72 37.68C56.06 37.65 24.93 37.68 22.83 37.68C20.73 37.68 16.08 36.41 18.52 28.47H18.51Z" fill="#054A91"/>
<path d="M79.72 37.68H67.28C67.28 37.68 75.33 11.72 75.66 10.64C75.99 9.56 77.4 8.82 79.72 8.94C82.04 9.06 87.92 8.88 88.18 8.94C88.62 9 88.39 9.68 88.14 10.43C87.89 11.18 79.72 37.68 79.72 37.68Z" fill="#054A91"/>
<path d="M88.96 5.38C88.13 5.39 78.78 5.38 78.45 5.38C78.12 5.38 77.9 4.88 78.01 4.22C78.12 3.56 79.14 0.39 79.2 0.18C79.31 -0.18 79.45 0.0999997 80.12 0.0899997C80.6 0.0899997 89.51 0.18 90.34 0.18C91.17 0.18 91.45 0.0699997 91.28 0.57C91.11 1.07 90.29 5.36 88.96 5.38Z" fill="#054A91"/>
<path d="M96.23 37.68C93.86 38.1 87.52 37.68 86.77 37.68C86.02 37.68 85.69 37.6 86.11 36.19C86.53 34.78 97.14 0.190002 97.14 0.190002H106.93C108.17 0.190002 108.73 0.270002 108.87 1.1C109.01 1.93 100.13 31.79 99.39 33.7C98.65 35.61 98.56 37.27 96.24 37.68H96.23Z" fill="#054A91"/>
<path d="M114.23 37.68C111.86 38.1 105.52 37.68 104.77 37.68C104.02 37.68 103.69 37.6 104.11 36.19C104.53 34.78 115.14 0.190002 115.14 0.190002H124.93C126.17 0.190002 126.73 0.270002 126.87 1.1C127.01 1.93 118.13 31.79 117.39 33.7C116.65 35.61 116.56 37.27 114.24 37.68H114.23Z" fill="#054A91"/>
<path d="M142.81 5.53C143.49 3.07 144.16 1.29 144.12 1.1C143.98 0.270002 143.43 0.190002 142.18 0.190002C141.08 0.190002 134.57 0.210002 132.82 0.240002C132.6 0.240002 132.5 0.270002 132.4 0.360002C132.3 0.450002 132.3 0.490002 132.24 0.640002C131.96 1.31 131.41 2.97 131.08 4.22C130.94 4.74 130.72 5.2 130.8 5.39C130.88 5.58 131.15 5.52 131.63 5.52C134.52 5.52 142.81 5.53 142.81 5.53Z" fill="#054A91"/>
<path d="M129.27 10.38C125.56 20.52 121.63 35.28 121.36 36.19C120.95 37.6 121.28 37.68 122.02 37.68C122.76 37.68 129.07 37.78 131.48 37.68C134.24 37.57 133.95 36.03 134.63 33.7C135 32.44 141.44 11.16 141.56 10.64C141.68 10.12 141.45 9.32 140.79 9.32H130.98C129.97 9.32 129.57 9.55 129.26 10.39L129.27 10.38Z" fill="#054A91"/>
<path d="M181.55 10.38C177.84 20.52 173.91 35.28 173.64 36.19C173.23 37.6 173.56 37.68 174.3 37.68C175.04 37.68 181.35 37.78 183.76 37.68C186.52 37.57 186.23 36.03 186.91 33.7C187.28 32.44 193.72 11.16 193.84 10.64C193.96 10.12 193.73 9.32 193.07 9.32H183.26C182.25 9.32 181.85 9.55 181.54 10.39L181.55 10.38Z" fill="#054A91"/>
<path d="M154.43 28.72C155.15 25.91 158.38 14.76 158.77 13.82C159.16 12.88 159.53 11.91 159.71 11.08C159.89 10.25 159.68 9.64 158.85 9.59C158.02 9.54 155.43 9.65 152.8 9.59C150.17 9.53 148.13 11.64 147.63 13.35C147.13 15.06 142.81 30.69 142.43 31.93C141.99 33.4 140.26 37.88 145.8 37.87C151.34 37.86 162.81 37.87 164.37 37.87C165.93 37.87 167.37 37.13 168.31 34.75C169.25 32.37 169.88 29.55 170.06 28.89C170.24 28.23 169.74 27.51 168.25 27.51H164.39C163.66 27.51 163.55 27.62 163.16 28.62C162.77 29.62 161.94 33.15 157.46 32.71C152.98 32.27 154.03 30.26 154.42 28.73L154.43 28.72Z" fill="#054A91"/>
<path d="M162.01 21.55H170.43C171.05 21.55 171.92 20.93 172.13 20.1C172.34 19.27 173.37 14.96 173.46 14.13C173.55 13.3 172.71 9.98 169.15 9.82C165.59 9.66 165.91 9.82 165.17 9.82C164.43 9.82 163.76 10.65 163.51 11.27C163.26 11.89 161.56 17.45 161.31 17.99C161.06 18.53 160.23 20.85 160.52 21.14C160.81 21.43 160.52 21.55 162.01 21.55Z" fill="#054A91"/>
<path d="M202.74 22.13H196.09C195.27 22.13 193.99 22.21 194.53 19.97C195.07 17.73 196.77 12.01 197.1 11.26C197.43 10.51 198.01 10.1 199.92 10.1C201.83 10.1 204.19 10.18 205.56 11.3C206.93 12.42 207.68 13.17 207.26 14.99C206.84 16.81 206.16 18.47 206.01 19.34C205.9 19.97 205.64 21.49 204.82 21.87C204 22.25 203.29 22.12 202.75 22.12L202.74 22.13Z" fill="#054A91"/>
</g>
<defs>
<clipPath id="clip0_112_265">
<rect width="218.75" height="53.27" fill="white"/>
</clipPath>
</defs>
</svg>
