<svg xmlns="http://www.w3.org/2000/svg" xmlns:xlink="http://www.w3.org/1999/xlink" width="50" zoomAndPan="magnify" viewBox="0 0 37.5 37.499999" height="50" preserveAspectRatio="xMidYMid meet" version="1.2"><defs><clipPath id="de4141cce1"><path d="M 3.699219 8.769531 L 33 8.769531 L 33 12 L 3.699219 12 Z M 3.699219 8.769531 "/></clipPath><clipPath id="6099f93117"><path d="M 3.699219 17 L 33 17 L 33 20 L 3.699219 20 Z M 3.699219 17 "/></clipPath><clipPath id="baef1cca2d"><path d="M 3.699219 25 L 33 25 L 33 28.015625 L 3.699219 28.015625 Z M 3.699219 25 "/></clipPath></defs><g id="34064d00ac"><g clip-rule="nonzero" clip-path="url(#de4141cce1)"><path style=" stroke:none;fill-rule:evenodd;fill:#ffffff;fill-opacity:1;" d="M 32.972656 10.03125 C 32.972656 10.722656 32.410156 11.285156 31.714844 11.285156 L 4.957031 11.285156 C 4.261719 11.285156 3.703125 10.722656 3.703125 10.03125 C 3.703125 9.335938 4.261719 8.773438 4.957031 8.773438 L 31.714844 8.773438 C 32.410156 8.773438 32.972656 9.335938 32.972656 10.03125 Z M 32.972656 10.03125 "/></g><g clip-rule="nonzero" clip-path="url(#6099f93117)"><path style=" stroke:none;fill-rule:evenodd;fill:#ffffff;fill-opacity:1;" d="M 32.972656 18.390625 C 32.972656 19.085938 32.410156 19.648438 31.714844 19.648438 L 4.957031 19.648438 C 4.261719 19.648438 3.703125 19.085938 3.703125 18.390625 C 3.703125 17.699219 4.261719 17.136719 4.957031 17.136719 L 31.714844 17.136719 C 32.410156 17.136719 32.972656 17.699219 32.972656 18.390625 Z M 32.972656 18.390625 "/></g><g clip-rule="nonzero" clip-path="url(#baef1cca2d)"><path style=" stroke:none;fill-rule:evenodd;fill:#ffffff;fill-opacity:1;" d="M 32.972656 26.753906 C 32.972656 27.449219 32.410156 28.007812 31.714844 28.007812 L 4.957031 28.007812 C 4.261719 28.007812 3.703125 27.449219 3.703125 26.753906 C 3.703125 26.0625 4.261719 25.5 4.957031 25.5 L 31.714844 25.5 C 32.410156 25.5 32.972656 26.0625 32.972656 26.753906 Z M 32.972656 26.753906 "/></g></g></svg>